<svg version="1.1" xmlns="http://www.w3.org/2000/svg" xmlns:xlink="http://www.w3.org/1999/xlink" role="img" width="305" height="90" viewbox="0 0 305 90"><title>ToolGuide</title><desc>Generated by logo.svg, https://github.com/bubkoo/logo.svg</desc><path fill="#2b68a7" d="M6.89 70.35L7.46 67.66L8.94 67.66Q11.05 67.66 12.74 66.96Q14.44 66.26 15.08 63.38L22.63 27.86L16.49 27.86Q13.67 27.86 12.23 29.42Q10.79 30.99 10.09 33.10L9.19 35.86L5.86 35.86L8.55 24.66L44.58 24.66L42.54 35.86L39.21 35.86Q39.27 35.54 39.34 34.64Q39.40 33.74 39.46 32.94Q39.53 32.14 39.53 31.95Q39.53 30.29 38.63 29.07Q37.74 27.86 35.30 27.86L29.10 27.86L21.54 63.31Q21.29 64.34 21.29 65.10Q21.29 66.77 22.60 67.22Q23.91 67.66 25.90 67.66L27.37 67.66L26.79 70.35L6.89 70.35ZM53.35 70.99Q47.91 70.99 44.49 67.70Q41.06 64.40 41.06 57.74Q41.06 54.22 42.22 50.32Q43.37 46.42 45.74 43.02Q48.10 39.63 51.69 37.52Q55.27 35.41 60.14 35.41Q63.53 35.41 66.28 36.75Q69.03 38.10 70.66 41.04Q72.30 43.98 72.30 48.66Q72.30 51.41 71.59 54.45Q70.89 57.49 69.42 60.43Q67.94 63.38 65.70 65.74Q63.46 68.11 60.36 69.55Q57.26 70.99 53.35 70.99M54.06 67.73Q57.19 67.73 59.40 65.71Q61.61 63.70 62.98 60.53Q64.36 57.36 65 53.90Q65.64 50.45 65.64 47.57Q65.64 42.77 63.98 40.72Q62.31 38.67 59.37 38.67Q56.87 38.67 54.95 40.02Q53.03 41.36 51.66 43.57Q50.28 45.78 49.42 48.46Q48.55 51.15 48.14 53.87Q47.72 56.59 47.72 58.90Q47.72 63.76 49.45 65.74Q51.18 67.73 54.06 67.73ZM90.09 70.99Q84.65 70.99 81.22 67.70Q77.80 64.40 77.80 57.74Q77.80 54.22 78.95 50.32Q80.10 46.42 82.47 43.02Q84.84 39.63 88.42 37.52Q92.01 35.41 96.87 35.41Q100.26 35.41 103.02 36.75Q105.77 38.10 107.40 41.04Q109.03 43.98 109.03 48.66Q109.03 51.41 108.33 54.45Q107.62 57.49 106.15 60.43Q104.68 63.38 102.44 65.74Q100.20 68.11 97.10 69.55Q93.99 70.99 90.09 70.99M90.79 67.73Q93.93 67.73 96.14 65.71Q98.34 63.70 99.72 60.53Q101.10 57.36 101.74 53.90Q102.38 50.45 102.38 47.57Q102.38 42.77 100.71 40.72Q99.05 38.67 96.10 38.67Q93.61 38.67 91.69 40.02Q89.77 41.36 88.39 43.57Q87.02 45.78 86.15 48.46Q85.29 51.15 84.87 53.87Q84.46 56.59 84.46 58.90Q84.46 63.76 86.18 65.74Q87.91 67.73 90.79 67.73ZM121.77 70.99Q119.21 70.99 117.83 69.20Q116.46 67.41 116.46 64.91Q116.46 63.57 116.71 61.71Q116.97 59.86 117.29 58Q117.61 56.14 117.86 54.86L123.11 30.29Q123.30 29.39 123.40 28.56Q123.50 27.73 123.50 27.41Q123.50 25.49 122.18 24.94Q120.87 24.40 119.02 24.40L118.25 24.40L118.82 21.71L130.92 21.71L123.50 56.59Q123.30 57.30 123.08 58.64Q122.86 59.98 122.66 61.39Q122.47 62.80 122.47 63.70Q122.47 66.96 124.58 66.96Q125.61 66.96 126.79 66.48Q127.98 66 129.19 65.30L130.34 67.15Q128.94 68.43 126.57 69.71Q124.20 70.99 121.77 70.99ZM152.74 70.99Q143.72 70.99 139.14 66.38Q134.57 61.78 134.57 53.84Q134.57 47.63 136.55 42.22Q138.54 36.82 142.18 32.72Q145.83 28.62 150.89 26.32Q155.94 24.02 162.09 24.02Q168.87 24.02 172.23 26.06Q175.59 28.11 175.59 30.93Q175.59 33.42 173.58 34.70Q171.56 35.98 168.81 35.98Q168.81 32.21 166.89 29.81Q164.97 27.41 160.74 27.41Q156.65 27.41 153.16 29.65Q149.67 31.89 147.05 35.73Q144.42 39.57 142.98 44.50Q141.54 49.42 141.54 54.86Q141.54 60.37 144.39 63.86Q147.24 67.34 153.90 67.34Q155.69 67.34 157.67 67.09Q159.66 66.83 161.13 66.45L163.24 56.27Q163.50 55.25 163.50 54.48Q163.50 52.82 162.12 52.37Q160.74 51.92 158.89 51.92L158.31 51.92L158.89 49.23L175.91 49.23L175.34 51.92L175.08 51.92Q173.29 51.92 171.78 52.72Q170.28 53.52 169.64 56.53L167.21 68.05Q163.69 69.52 160.26 70.26Q156.84 70.99 152.74 70.99ZM206.12 70.99Q203.56 70.99 202.15 69.20Q200.74 67.41 200.74 64.91Q200.74 64.21 200.84 63.18Q200.94 62.16 201.06 61.14L200.55 61.14Q198.76 64.08 197.03 66.26Q195.30 68.43 193.19 69.68Q191.08 70.93 188.20 70.93Q184.42 70.93 182.89 68.78Q181.35 66.64 181.35 63.82Q181.35 62.22 181.74 60.34Q182.12 58.45 182.50 56.78L185 45.58Q185.19 44.69 185.38 43.38Q185.58 42.06 185.58 41.74Q185.58 39.82 184.26 39.28Q182.95 38.74 181.10 38.74L180.58 38.74L181.16 36.05L193.06 36.05L188.84 55.18Q188.46 56.91 188.01 59.22Q187.56 61.52 187.56 62.93Q187.56 64.53 188.20 65.68Q188.84 66.83 190.70 66.83Q192.42 66.83 194.28 65.52Q196.14 64.21 197.86 62.03Q199.59 59.86 200.87 57.23Q202.15 54.61 202.73 51.98L206.06 36.05L212.26 36.05L207.85 56.59Q207.66 57.30 207.43 58.64Q207.21 59.98 207.05 61.39Q206.89 62.80 206.89 63.70Q206.89 66.96 209 66.96Q210.09 66.96 210.98 66.61Q211.88 66.26 213.10 65.55L214.25 67.41Q212.84 68.69 210.70 69.84Q208.55 70.99 206.12 70.99ZM229.61 29.65Q228.01 29.65 227.02 28.78Q226.02 27.92 226.02 26.13Q226.02 24.14 227.08 22.90Q228.14 21.65 229.86 21.65Q231.40 21.65 232.42 22.51Q233.45 23.38 233.45 25.17Q233.45 27.66 232.23 28.66Q231.02 29.65 229.61 29.65M225.19 70.99Q222.63 70.99 221.26 69.20Q219.88 67.41 219.88 64.91Q219.88 63.57 220.14 61.71Q220.39 59.86 220.71 58Q221.03 56.14 221.29 54.86L223.78 43.09Q223.98 42.13 223.98 41.42Q223.98 39.70 222.92 39.22Q221.86 38.74 220.07 38.74L219.24 38.74L219.82 36.05L231.27 36.05L226.92 56.59Q226.79 57.30 226.54 58.64Q226.28 59.98 226.12 61.39Q225.96 62.80 225.96 63.70Q225.96 66.96 228.07 66.96Q229.10 66.96 230.28 66.48Q231.46 66 232.68 65.30L233.83 67.15Q232.42 68.43 229.99 69.71Q227.56 70.99 225.19 70.99ZM245.74 70.99Q242.92 70.99 241.06 69.46Q239.21 67.92 238.34 65.26Q237.48 62.61 237.48 59.28Q237.48 56.27 238.28 52.98Q239.08 49.68 240.68 46.58Q242.28 43.47 244.58 40.94Q246.89 38.42 249.90 36.91Q252.90 35.41 256.55 35.41Q258.41 35.41 260.01 35.86Q261.61 36.30 262.89 37.01Q263.02 36.18 263.21 35.06Q263.40 33.94 263.53 33.36L264.17 30.29Q264.36 29.39 264.49 28.59Q264.62 27.79 264.62 27.41Q264.62 25.49 263.30 24.94Q261.99 24.40 260.14 24.40L259.62 24.40L260.20 21.71L271.98 21.71L264.55 56.59Q264.42 57.30 264.17 58.64Q263.91 59.98 263.75 61.39Q263.59 62.80 263.59 63.70Q263.59 66.96 265.70 66.96Q266.73 66.96 267.91 66.48Q269.10 66 270.31 65.30L271.46 67.15Q270.57 67.98 269.03 68.88Q267.50 69.78 265.77 70.38Q264.04 70.99 262.44 70.99Q260.14 70.99 258.79 69.58Q257.45 68.18 257.45 65.68Q257.45 64.85 257.61 63.57Q257.77 62.29 258.09 60.69L257.70 60.69Q255.46 65.62 252.49 68.30Q249.51 70.99 245.74 70.99M248.04 66.96Q249.70 66.96 251.46 65.68Q253.22 64.40 254.79 62.22Q256.36 60.05 257.58 57.36Q258.79 54.67 259.37 51.92L261.74 40.59Q261.03 39.44 259.69 38.86Q258.34 38.29 256.87 38.29Q254.31 38.29 252.26 39.73Q250.22 41.17 248.68 43.54Q247.14 45.90 246.09 48.72Q245.03 51.54 244.52 54.38Q244.01 57.23 244.01 59.54Q244.01 63.50 245.16 65.23Q246.31 66.96 248.04 66.96ZM287.02 70.99Q283.56 70.99 280.74 69.52Q277.93 68.05 276.23 65.14Q274.54 62.22 274.54 57.74Q274.54 54.22 275.75 50.32Q276.97 46.42 279.40 43.02Q281.83 39.63 285.38 37.52Q288.94 35.41 293.61 35.41Q297.64 35.41 299.88 37.36Q302.12 39.31 302.12 42.77Q302.12 46.16 299.72 49.07Q297.32 51.98 293.13 53.78Q288.94 55.57 283.56 55.57L281.32 55.57Q281.26 56.27 281.22 56.94Q281.19 57.62 281.19 58.26Q281.19 62.42 282.98 64.69Q284.78 66.96 288.23 66.96Q291.30 66.96 293.70 65.49Q296.10 64.02 297.45 62.35Q298.09 62.80 298.09 63.95Q298.09 65.36 296.90 66.99Q295.72 68.62 293.29 69.81Q290.86 70.99 287.02 70.99M281.90 52.62L282.54 52.62Q286.25 52.62 289.19 51.38Q292.14 50.13 293.83 47.92Q295.53 45.71 295.53 42.77Q295.53 38.48 291.82 38.48Q289.96 38.48 288.39 39.73Q286.82 40.98 285.54 43.06Q284.26 45.14 283.34 47.63Q282.41 50.13 281.90 52.62Z"></path></svg>